<?xml version="1.0" encoding="UTF-8" standalone="no"?>
<svg
   version="1.1"
   viewBox="-5 -10 96.507691 92.018402"
   id="svg10"
   sodipodi:docname="logo.svg"
   width="96.50769"
   height="92.018402"
   inkscape:version="1.1.2 (0a00cf5339, 2022-02-04)"
   xmlns:inkscape="http://www.inkscape.org/namespaces/inkscape"
   xmlns:sodipodi="http://sodipodi.sourceforge.net/DTD/sodipodi-0.dtd"
   xmlns="http://www.w3.org/2000/svg"
   xmlns:svg="http://www.w3.org/2000/svg">
  <defs
     id="defs14" />
  <sodipodi:namedview
     id="namedview12"
     pagecolor="#ffffff"
     bordercolor="#000000"
     borderopacity="0.25"
     inkscape:pageshadow="2"
     inkscape:pageopacity="0.0"
     inkscape:pagecheckerboard="0"
     showgrid="false"
     inkscape:zoom="6.0814815"
     inkscape:cx="4.0286236"
     inkscape:cy="41.930572"
     inkscape:window-width="1920"
     inkscape:window-height="1007"
     inkscape:window-x="0"
     inkscape:window-y="0"
     inkscape:window-maximized="1"
     inkscape:current-layer="svg10" />
  <ellipse
     style="fill:#f4d7ee;stroke-width:3.29327;stroke-linecap:round;stroke-linejoin:round;stroke-dasharray:3.29327, 13.1731;stroke-opacity:0.999853"
     id="path844"
     cx="43.253845"
     cy="36.009201"
     rx="48.253845"
     ry="46.009201" />
  <g
     id="g928"
     transform="translate(4.5071034,14.803974)">
    <path
       d="m 66.051397,44.765914 h -6.0312 v -2.8438 c -0.0039,-1.043 -0.84766,-1.8867 -1.8906,-1.8906 h -38.801 c -1.0352,0.0039 -1.8711,0.84375 -1.875,1.875 v 2.8594 h -6.0625 c -0.86328,0.0039 -1.5625005,0.70312 -1.5625005,1.5625 v 4.5195 c -0.0039,0.41406 0.16016,0.8125 0.4570305,1.1055 0.29297,0.29297 0.69141,0.45703 1.1055,0.45703 h 54.66 c 0.41406,0 0.8125,-0.16406 1.1094,-0.45703 0.29297,-0.29297 0.45703,-0.69141 0.45312,-1.1055 v -4.5195 c 0,-0.85938 -0.69922,-1.5586 -1.5625,-1.5625 z m -1.5625,4.5195 h -51.535 v -1.3906 h 51.535 z"
       id="path2"
       style="fill:#aa0088" />
    <path
       d="m 81.211397,1.7929138 c -0.82031,-0.80858999 -1.9258,-1.26559999 -3.0781,-1.26559999 l -5.9688,0.01563 c -0.03516,0.0039 -0.08594,-0.0039 -0.11328,0 l -13.105,0.01563 -0.0039,-5.68750001 c -0.05469,-6.0390998 -9.0898,-6.6718998 -9.3594,-0.40625 v 7.5156 l -21.441,0.25 v -7.3594 c 0.0078,-1.293 -0.50391,-2.5391 -1.4219,-3.4531 -1.2852,-1.3398 -3.2461,-1.7772998 -4.9805,-1.1094 -1.7305,0.66406 -2.8984,2.3008 -2.957,4.1562 v 7.8594 l -10.7810005,0.125 c -4.957,0.08984 -9.5977,2.4453 -12.598,6.3945 -0.41406,0.45703 -0.51953,1.1172 -0.26953,1.6836002 0.25,0.5664 0.80859,0.93359 1.4258,0.94141 l 22.2230005,-0.25 v 5.7656 l -9.0469005,0.04687 c -2.3984,0.01172 -4.332,1.9609 -4.3281,4.3594 v 1.5 c 0.01563,2.4375 2,4.3984 4.4375,4.3906 l 8.9375005,-0.04687 v 9.7031 c 0.1875,-0.01562 0.35938,-0.03125 0.54688,-0.03125 h 2.5781 v -9.6719 l 3.1094,-0.01563 v 9.6875 h 3.125 v -9.7031 c 3.7734,-0.02344 17.973,-0.07422 21.441,-0.09375 v 9.7969 h 3.125 v -9.8125 l 3.1094,-0.01562 v 9.8281 c 1.043,-0.03516 2.0859,-0.01172 3.125,0.07813 v -9.9219 l 9.6562,-0.04687 c 0.86719,-0.01172 1.5586,-0.71484 1.5625,-1.5781 l -0.03125,-7.1094 c -0.0078,-0.86719 -0.71094,-1.5625 -1.5781,-1.5625 l -9.6094,0.04687 v -4.1562 l 7.0781,-0.01562 c 0.05469,0.0078 0.10938,0.0078 0.16406,0 l 11.758,-0.01563 h 0.0039 c 2.5117,-0.0078 4.5469,-2.0508 4.5469,-4.5664002 -0.11719,-1.9141 0.44531,-4.8633 -1.2812,-6.2656 z m -2.2031,2.2188 c 0.625,0.42578 0.27344,2.8867 0.35938,3.7461 l -3.6992,-4.1055 c 0.68359,0.08594 2.8672,-0.26172 3.3398,0.35938 z m -13.172,4.6055 -4.7773,-4.9336 8.1445,-0.01563 z m -13.129,-14.152 c 0.12109,-2.0938 3.2031,-1.5039 3.1094,0.40625 v 7.0469 l -2.9688,0.03125 c -0.04687,-0.01172 -0.09375,-0.01563 -0.14062,-0.01563 z m -30.801,0 c 0.11719,-2.0977 3.2227,-1.5078 3.1094,0.40625 v 7.3906 l -3.1094,0.03125 z m -21.57800046,13.832 c 2.18749996,-1.7461 4.90229996,-2.7031 7.70309996,-2.7227 l 12.1560005,-0.14062 c 0.10156,0.01953 0.21094,0.01953 0.3125,0 7.793,-0.07031 27.477,-0.3125 35.301,-0.39062 l 0.01563,2.6406 -2.1562,0.01563 c -15.273,0.19922 -38.094,0.42188 -53.33200046,0.59766 z m 44.66000046,8.5781002 -6.2656,0.03125 -10.578,0.04688 -0.0039,-5.8281 21.441,-0.25 v 5.9688 z m -23.082,-5.6875 3.1094,-0.03125 v 5.8125 h -3.1094 z m 45.098,8.7188 0.01563,3.9844 c -5.9141,0.02344 -14.621,0.07812 -20.473,0.09375 -11.578,0.05859 -25.113,0.11719 -36.7230005,0.17187 h 0.0039 c -0.71094,0.0039 -1.293,-0.57031 -1.2969,-1.2812 0.05078,-0.62109 -0.19141,-1.8789 0.34375,-2.3594 0.22656,-0.23047 0.53516,-0.35938 0.85938,-0.35938 3.9727005,-0.01172 12.9840005,-0.0625 16.8440005,-0.07812 13.02,-0.04688 27.414,-0.13281 40.426,-0.17188 z m -14.297,-3.0625 v -6 l 3.1094,-0.03125 v 0.28125 c 0.0039,0.01953 0,5.7148 0,5.7344 z m 6.2344,-7.3125002 v -3.5391 l 3.4258,3.5391 z m 10.066,-0.01562 3.3281,-4.8906 4.3906,4.875 z"
       id="path4"
       style="fill:#aa0088" />
  </g>
</svg>
