<svg xmlns="http://www.w3.org/2000/svg" version="1.1" viewBox="-5.0 -10.0 110.0 135.0">
 <path d="m77.309 73.555h-6.0312v-2.8438c-0.003906-1.043-0.84766-1.8867-1.8906-1.8906h-38.801c-1.0352 0.003907-1.8711 0.84375-1.875 1.875v2.8594h-6.0625c-0.86328 0.003906-1.5625 0.70312-1.5625 1.5625v4.5195c-0.003907 0.41406 0.16016 0.8125 0.45703 1.1055 0.29297 0.29297 0.69141 0.45703 1.1055 0.45703h54.66c0.41406 0 0.8125-0.16406 1.1094-0.45703 0.29297-0.29297 0.45703-0.69141 0.45312-1.1055v-4.5195c0-0.85938-0.69922-1.5586-1.5625-1.5625zm-1.5625 4.5195h-51.535v-1.3906h51.535z"/>
 <path d="m92.469 30.582c-0.82031-0.80859-1.9258-1.2656-3.0781-1.2656l-5.9688 0.015625c-0.035156 0.003907-0.085937-0.003906-0.11328 0l-13.105 0.015625-0.003906-5.6875c-0.054688-6.0391-9.0898-6.6719-9.3594-0.40625v7.5156l-21.441 0.25v-7.3594c0.007812-1.293-0.50391-2.5391-1.4219-3.4531-1.2852-1.3398-3.2461-1.7773-4.9805-1.1094-1.7305 0.66406-2.8984 2.3008-2.957 4.1562v7.8594l-10.781 0.125c-4.957 0.089844-9.5977 2.4453-12.598 6.3945-0.41406 0.45703-0.51953 1.1172-0.26953 1.6836s0.80859 0.93359 1.4258 0.94141l22.223-0.25v5.7656l-9.0469 0.046874c-2.3984 0.011719-4.332 1.9609-4.3281 4.3594v1.5c0.015626 2.4375 2 4.3984 4.4375 4.3906l8.9375-0.046874v9.7031c0.1875-0.015624 0.35938-0.03125 0.54688-0.03125h2.5781v-9.6719l3.1094-0.015626v9.6875h3.125v-9.7031c3.7734-0.023438 17.973-0.074219 21.441-0.09375v9.7969h3.125v-9.8125l3.1094-0.015624v9.8281c1.043-0.035156 2.0859-0.011718 3.125 0.078126v-9.9219l9.6562-0.046874c0.86719-0.011719 1.5586-0.71484 1.5625-1.5781l-0.03125-7.1094c-0.007813-0.86719-0.71094-1.5625-1.5781-1.5625l-9.6094 0.046874v-4.1562l7.0781-0.015624c0.054687 0.007812 0.10938 0.007812 0.16406 0l11.758-0.015626h0.003906c2.5117-0.007812 4.5469-2.0508 4.5469-4.5664-0.11719-1.9141 0.44531-4.8633-1.2812-6.2656zm-2.2031 2.2188c0.625 0.42578 0.27344 2.8867 0.35938 3.7461l-3.6992-4.1055c0.68359 0.085938 2.8672-0.26172 3.3398 0.35938zm-13.172 4.6055-4.7773-4.9336 8.1445-0.015625zm-13.129-14.152c0.12109-2.0938 3.2031-1.5039 3.1094 0.40625v7.0469l-2.9688 0.03125c-0.046875-0.011719-0.09375-0.015625-0.14062-0.015625zm-30.801 0c0.11719-2.0977 3.2227-1.5078 3.1094 0.40625v7.3906l-3.1094 0.03125zm-21.578 13.832c2.1875-1.7461 4.9023-2.7031 7.7031-2.7227l12.156-0.14062c0.10156 0.019532 0.21094 0.019532 0.3125 0 7.793-0.070312 27.477-0.3125 35.301-0.39062l0.015625 2.6406-2.1562 0.015625c-15.273 0.19922-38.094 0.42188-53.332 0.59766zm44.66 8.5781-6.2656 0.03125-10.578 0.046876-0.003906-5.8281 21.441-0.25v5.9688zm-23.082-5.6875 3.1094-0.03125v5.8125h-3.1094zm45.098 8.7188 0.015625 3.9844c-5.9141 0.023437-14.621 0.078124-20.473 0.09375-11.578 0.058593-25.113 0.11719-36.723 0.17187h0.003907c-0.71094 0.003907-1.293-0.57031-1.2969-1.2812 0.050782-0.62109-0.19141-1.8789 0.34375-2.3594 0.22656-0.23047 0.53516-0.35938 0.85938-0.35938 3.9727-0.011718 12.984-0.0625 16.844-0.078124 13.02-0.046876 27.414-0.13281 40.426-0.17188zm-14.297-3.0625v-6l3.1094-0.03125v0.28125c0.003906 0.019532 0 5.7148 0 5.7344zm6.2344-7.3125v-3.5391l3.4258 3.5391zm10.066-0.015624 3.3281-4.8906 4.3906 4.875z"/>
<text x="0.0" y="117.5" font-size="5.0" font-weight="bold" font-family="Arbeit Regular, Helvetica, Arial-Unicode, Arial, Sans-serif" fill="#000000">Created by ardi muctar</text><text x="0.0" y="122.5" font-size="5.0" font-weight="bold" font-family="Arbeit Regular, Helvetica, Arial-Unicode, Arial, Sans-serif" fill="#000000">from Noun Project</text></svg>